<svg width="16" height="17" viewBox="0 0 16 17" fill="none" xmlns="http://www.w3.org/2000/svg">
<g clip-path="url(#clip0_1_348)">
<path d="M3.97098 7.98105L10.7593 1.19285C10.9163 1.03572 11.1259 0.949158 11.3494 0.949158C11.5729 0.949158 11.7825 1.03572 11.9395 1.19285L12.4394 1.69264C12.7647 2.01831 12.7647 2.54761 12.4394 2.87279L6.73905 8.57311L12.4457 14.2798C12.6027 14.4369 12.6894 14.6464 12.6894 14.8697C12.6894 15.0933 12.6027 15.3028 12.4457 15.46L11.9458 15.9597C11.7887 16.1168 11.5792 16.2034 11.3557 16.2034C11.1322 16.2034 10.9226 16.1168 10.7656 15.9597L3.97098 9.16529C3.81361 9.00767 3.72717 8.79721 3.72766 8.57348C3.72717 8.34889 3.81361 8.13856 3.97098 7.98105Z" fill="#D42978"/>
</g>
<defs>
<clipPath id="clip0_1_348">
<rect width="15.2542" height="15.2542" fill="white" transform="matrix(-1 0 0 1 15.8356 0.949158)"/>
</clipPath>
</defs>
</svg>
