<svg width="40" height="40" viewBox="0 0 40 40" fill="none" xmlns="http://www.w3.org/2000/svg">
<g id="Frame">
<g id="Group">
<g id="1080_HD">
<path id="Vector" d="M31.7577 8.68359H8.24281C7.4214 8.68452 6.63389 9.01124 6.05305 9.59206C5.47222 10.1729 5.14548 10.9604 5.14453 11.7818V28.2175C5.14548 29.0389 5.47221 29.8264 6.05305 30.4073C6.63388 30.9881 7.42139 31.3148 8.24281 31.3158H31.7577C32.5791 31.3148 33.3666 30.9881 33.9474 30.4073C34.5283 29.8264 34.855 29.0389 34.8559 28.2175V11.7818C34.855 10.9604 34.5283 10.1729 33.9474 9.59206C33.3666 9.01124 32.5791 8.68452 31.7577 8.68359ZM19.5829 28.4286C19.5829 28.5944 19.517 28.7533 19.3998 28.8705C19.2826 28.9877 19.1237 29.0536 18.9579 29.0536C18.7921 29.0536 18.6332 28.9877 18.5159 28.8705C18.3987 28.7533 18.3329 28.5944 18.3329 28.4286V27.4306H17.0563V28.4286C17.0563 28.5944 16.9905 28.7533 16.8733 28.8705C16.7561 28.9877 16.5971 29.0536 16.4313 29.0536C16.2656 29.0536 16.1066 28.9877 15.9894 28.8705C15.8722 28.7533 15.8063 28.5944 15.8063 28.4286V25.1827C15.8063 25.0169 15.8722 24.8579 15.9894 24.7407C16.1066 24.6235 16.2656 24.5577 16.4313 24.5577C16.5971 24.5577 16.7561 24.6235 16.8733 24.7407C16.9905 24.8579 17.0563 25.0169 17.0563 25.1827V26.1806H18.3329V25.1827C18.3329 25.0169 18.3987 24.8579 18.5159 24.7407C18.6332 24.6235 18.7921 24.5577 18.9579 24.5577C19.1237 24.5577 19.2826 24.6235 19.3998 24.7407C19.517 24.8579 19.5829 25.0169 19.5829 25.1827V28.4286ZM21.9462 29.0536H21.2298C21.0641 29.0536 20.9051 28.9877 20.7879 28.8705C20.6707 28.7533 20.6048 28.5944 20.6048 28.4286V25.1827C20.6048 25.0169 20.6707 24.8579 20.7879 24.7407C20.9051 24.6235 21.0641 24.5577 21.2298 24.5577H21.9462C22.5424 24.5577 23.1142 24.7945 23.5358 25.2161C23.9574 25.6376 24.1942 26.2094 24.1942 26.8056C24.1942 27.4018 23.9574 27.9736 23.5358 28.3952C23.1142 28.8168 22.5424 29.0536 21.9462 29.0536H21.9462ZM33.6059 22.9052H6.39453V11.7818C6.39509 11.2918 6.59 10.822 6.9365 10.4755C7.283 10.129 7.7528 9.93413 8.24281 9.93359H31.7577C32.2477 9.93413 32.7175 10.129 33.064 10.4755C33.4105 10.822 33.6054 11.2918 33.6059 11.7818V22.9052Z" fill="#D42978"/>
<path id="Vector_2" d="M21.9464 25.8075H21.8551V27.8034H21.9465C22.2112 27.8034 22.465 27.6983 22.6522 27.5111C22.8393 27.3239 22.9445 27.0701 22.9445 26.8054C22.9445 26.5408 22.8393 26.2869 22.6522 26.0998C22.465 25.9126 22.2112 25.8075 21.9465 25.8075H21.9464ZM12.7069 12.8909C12.5937 12.843 12.469 12.8296 12.3482 12.8523C12.2274 12.875 12.1161 12.9328 12.028 13.0185L10.6822 14.3271C10.6224 14.3841 10.5745 14.4524 10.5412 14.528C10.5079 14.6037 10.49 14.6851 10.4884 14.7677C10.4868 14.8503 10.5016 14.9324 10.532 15.0093C10.5623 15.0861 10.6076 15.1562 10.6652 15.2154C10.7228 15.2747 10.7916 15.3219 10.8675 15.3544C10.9435 15.3869 11.0252 15.404 11.1078 15.4047C11.1904 15.4054 11.2723 15.3897 11.3489 15.3586C11.4254 15.3275 11.495 15.2815 11.5536 15.2232L11.8386 14.9461V19.7907C11.8386 19.9564 11.9045 20.1154 12.0217 20.2326C12.1389 20.3498 12.2979 20.4157 12.4636 20.4157C12.6294 20.4157 12.7884 20.3498 12.9056 20.2326C13.0228 20.1154 13.0886 19.9564 13.0886 19.7907V13.4665C13.0886 13.3437 13.0524 13.2235 12.9845 13.1211C12.9166 13.0187 12.8201 12.9387 12.7069 12.8909ZM16.4914 12.8415C15.876 12.8422 15.286 13.087 14.8508 13.5222C14.4157 13.9573 14.1709 14.5473 14.1703 15.1627V18.0945C14.1703 18.7101 14.4148 19.3005 14.8501 19.7358C15.2854 20.1711 15.8758 20.4157 16.4914 20.4157C17.107 20.4157 17.6974 20.1711 18.1327 19.7358C18.5681 19.3005 18.8126 18.7101 18.8126 18.0945V15.1627C18.8119 14.5473 18.5671 13.9573 18.1319 13.5222C17.6967 13.087 17.1067 12.8422 16.4914 12.8415ZM17.5626 18.0945C17.5626 18.3786 17.4497 18.6511 17.2489 18.852C17.048 19.0528 16.7755 19.1657 16.4914 19.1657C16.2073 19.1657 15.9348 19.0528 15.7339 18.852C15.533 18.6511 15.4202 18.3786 15.4202 18.0945V15.1627C15.4202 14.8786 15.533 14.6061 15.7339 14.4052C15.9348 14.2043 16.2073 14.0915 16.4914 14.0915C16.7755 14.0915 17.048 14.2043 17.2489 14.4052C17.4497 14.6061 17.5626 14.8786 17.5626 15.1627V18.0945ZM27.1869 12.8415C26.5715 12.8422 25.9815 13.087 25.5464 13.5222C25.1112 13.9573 24.8665 14.5473 24.8658 15.1627V18.0945C24.864 18.4004 24.9228 18.7037 25.0386 18.9869C25.1545 19.2701 25.3252 19.5275 25.5409 19.7445C25.7566 19.9615 26.0131 20.1337 26.2956 20.2511C26.578 20.3686 26.881 20.4291 27.1869 20.4291C27.4929 20.4291 27.7958 20.3686 28.0783 20.2511C28.3608 20.1337 28.6173 19.9615 28.833 19.7445C29.0487 19.5275 29.2194 19.2701 29.3353 18.9869C29.4511 18.7037 29.5098 18.4004 29.5081 18.0945V15.1627C29.5074 14.5473 29.2626 13.9573 28.8275 13.5222C28.3923 13.0871 27.8024 12.8423 27.187 12.8416L27.1869 12.8415ZM28.2581 18.0945C28.2581 18.3786 28.1452 18.651 27.9443 18.8519C27.7435 19.0528 27.471 19.1657 27.1869 19.1657C26.9028 19.1657 26.6304 19.0528 26.4295 18.8519C26.2286 18.651 26.1157 18.3786 26.1157 18.0945V15.1627C26.1157 14.8786 26.2286 14.6061 26.4295 14.4053C26.6304 14.2044 26.9028 14.0915 27.1869 14.0915C27.471 14.0915 27.7435 14.2044 27.9443 14.4053C28.1452 14.6061 28.2581 14.8786 28.2581 15.1627V18.0945ZM24.1439 15.0296C24.1432 14.44 23.9086 13.8747 23.4917 13.4578C23.0748 13.0409 22.5095 12.8063 21.9199 12.8057H21.7666C21.3093 12.8054 20.863 12.9463 20.4886 13.2089C20.1143 13.4716 19.8301 13.8434 19.6747 14.2735C19.5194 14.7037 19.5005 15.1712 19.6206 15.6125C19.7408 16.0538 19.9941 16.4472 20.346 16.7393C19.994 17.0313 19.7407 17.4248 19.6205 17.866C19.5004 18.3073 19.5192 18.7749 19.6746 19.2051C19.8299 19.6353 20.1141 20.0071 20.4885 20.2698C20.8629 20.5325 21.3092 20.6733 21.7665 20.6731H21.9199C22.3772 20.6733 22.8235 20.5325 23.1979 20.2698C23.5722 20.0071 23.8565 19.6353 24.0118 19.2051C24.1671 18.775 24.186 18.3074 24.0659 17.8661C23.9457 17.4248 23.6924 17.0314 23.3404 16.7393C23.5918 16.531 23.7942 16.2697 23.9331 15.9742C24.0719 15.6786 24.1439 15.3561 24.1439 15.0296ZM21.7665 14.0557H21.9199C22.1767 14.058 22.4222 14.1616 22.6029 14.344C22.7837 14.5264 22.8851 14.7728 22.8851 15.0296C22.8851 15.2864 22.7837 15.5328 22.6029 15.7152C22.4222 15.8976 22.1767 16.0013 21.9199 16.0036H21.7665C21.6379 16.0047 21.5103 15.9804 21.3911 15.9319C21.2719 15.8835 21.1635 15.812 21.0722 15.7214C20.9808 15.6308 20.9083 15.5231 20.8588 15.4044C20.8093 15.2856 20.7838 15.1582 20.7838 15.0296C20.7838 14.901 20.8093 14.7736 20.8588 14.6549C20.9083 14.5361 20.9808 14.4284 21.0722 14.3378C21.1635 14.2473 21.2719 14.1757 21.3911 14.1273C21.5103 14.0789 21.6379 14.0545 21.7665 14.0557ZM21.9199 19.4231H21.7665C21.5082 19.4231 21.2604 19.3205 21.0778 19.1378C20.8951 18.9551 20.7925 18.7074 20.7925 18.4491C20.7925 18.1907 20.8951 17.943 21.0778 17.7603C21.2604 17.5777 21.5082 17.475 21.7665 17.475H21.9199C22.1782 17.475 22.4259 17.5777 22.6086 17.7603C22.7913 17.943 22.8939 18.1907 22.8939 18.4491C22.8939 18.7074 22.7913 18.9551 22.6086 19.1378C22.4259 19.3205 22.1782 19.4231 21.9199 19.4231Z" fill="#D42978"/>
</g>
</g>
</g>
</svg>
