<svg width="56" height="56" viewBox="0 0 56 56" fill="none" xmlns="http://www.w3.org/2000/svg">
<g id="Frame">
<g id="Group">
<path id="Vector" d="M29.8142 46.6588C29.7914 45.3909 30.114 44.1407 30.7475 43.0422L38.5 29.6185V28.0003H39.4333L41.454 24.5003H38.5V17.5003H45.5V18.415C46.001 18.0572 46.5702 17.8062 47.1723 17.6775C47.7744 17.5489 48.3965 17.5453 49 17.6672V10.5003C49 8.95323 48.3854 7.4695 47.2915 6.37554C46.1975 5.28157 44.7138 4.66699 43.1667 4.66699H9.33333C7.78624 4.66699 6.30251 5.28157 5.20854 6.37554C4.11458 7.4695 3.5 8.95323 3.5 10.5003V42.0003C3.5 42.7664 3.65088 43.5249 3.94404 44.2327C4.23719 44.9404 4.66687 45.5834 5.20854 46.1251C5.75022 46.6668 6.39328 47.0965 7.10101 47.3896C7.80875 47.6828 8.56729 47.8337 9.33333 47.8337H29.834L29.8142 46.6588ZM38.5 8.16699H43.1667C43.7855 8.16699 44.379 8.41282 44.8166 8.85041C45.2542 9.28799 45.5 9.88149 45.5 10.5003V14.0003H38.5V8.16699ZM14 44.3337H9.33333C8.71449 44.3337 8.121 44.0878 7.68342 43.6502C7.24583 43.2127 7 42.6192 7 42.0003V38.5003H14V44.3337ZM14 35.0003H7V28.0003H14V35.0003ZM14 24.5003H7V17.5003H14V24.5003ZM14 14.0003H7V10.5003C7 9.88149 7.24583 9.28799 7.68342 8.85041C8.121 8.41282 8.71449 8.16699 9.33333 8.16699H14V14.0003ZM19.8263 32.2307V21.4367C19.8263 21.0271 19.9342 20.6247 20.139 20.27C20.3438 19.9153 20.6383 19.6208 20.993 19.416C21.3477 19.2112 21.7501 19.1034 22.1597 19.1034C22.5693 19.1034 22.9716 19.2112 23.3263 19.416L32.6737 24.813C33.0284 25.0178 33.3229 25.3123 33.5277 25.667C33.7324 26.0217 33.8402 26.4241 33.8402 26.8337C33.8402 27.2432 33.7324 27.6456 33.5277 28.0003C33.3229 28.355 33.0284 28.6495 32.6737 28.8543L23.3263 34.2513C22.9716 34.4561 22.5693 34.5639 22.1597 34.5639C21.7501 34.5639 21.3477 34.4561 20.993 34.2513C20.6383 34.0466 20.3438 33.752 20.139 33.3973C19.9342 33.0426 19.8263 32.6402 19.8263 32.2307ZM45.5 40.8278V42.0003C45.4977 42.5607 45.2938 43.1016 44.9256 43.524C44.5573 43.9465 44.0493 44.2223 43.4945 44.301L41.4552 47.8337H43.1667C43.9327 47.8337 44.6913 47.6828 45.399 47.3896C46.1067 47.0965 46.7498 46.6668 47.2915 46.1251C47.8331 45.5834 48.2628 44.9404 48.556 44.2327C48.8491 43.5249 49 42.7664 49 42.0003V34.767L45.5 40.8278Z" fill="white"/>
<path id="Vector_2" d="M43.9839 24.791L33.2926 43.3072L39.3593 46.8072L50.0506 28.291L43.9839 24.791ZM44.3188 33.541C44.163 33.8068 43.9084 34.0002 43.6105 34.0789C43.3127 34.1577 42.9958 34.1154 42.729 33.9614C42.4622 33.8073 42.2671 33.554 42.1864 33.2567C42.1057 32.9594 42.1458 32.6422 42.2981 32.3744L44.0481 29.341C44.1242 29.2073 44.2259 29.0899 44.3475 28.9956C44.4691 28.9014 44.6082 28.8321 44.7566 28.7918C44.9051 28.7515 45.0601 28.7409 45.2127 28.7607C45.3653 28.7806 45.5124 28.8304 45.6457 28.9073C45.7789 28.9843 45.8956 29.0868 45.9891 29.209C46.0825 29.3312 46.1509 29.4707 46.1902 29.6195C46.2296 29.7682 46.2391 29.9233 46.2182 30.0757C46.1974 30.2282 46.1466 30.375 46.0688 30.5077L44.3188 33.541ZM51.2173 26.2692L52.1938 24.5787C52.3467 24.313 52.4458 24.0198 52.4854 23.7157C52.525 23.4117 52.5042 23.1029 52.4244 22.8069C52.3445 22.5108 52.2071 22.2335 52.02 21.9906C51.8329 21.7477 51.5998 21.5441 51.3339 21.3914L49.3133 20.2247C48.7774 19.9153 48.1405 19.8315 47.5427 19.9916C46.945 20.1518 46.4354 20.5428 46.1259 21.0787L45.1494 22.7704L51.2173 26.2692ZM32.2869 45.4212C32.1883 45.8132 32.1413 46.2164 32.1469 46.6205L32.2076 50.1847C32.2109 50.3862 32.2663 50.5833 32.3685 50.757C32.4706 50.9307 32.616 51.0749 32.7905 51.1757C32.9649 51.2765 33.1625 51.3304 33.364 51.3322C33.5654 51.3339 33.7639 51.2835 33.9401 51.1857L37.0574 49.4555C37.4104 49.2582 37.7363 49.0158 38.0269 48.7345L32.2869 45.4212Z" fill="white"/>
</g>
</g>
</svg>
