<svg width="20" height="20" viewBox="0 0 20 20" fill="none" xmlns="http://www.w3.org/2000/svg">
<g id="Frame" clip-path="url(#clip0_29_3641)">
<g id="Group">
<g id="Clip path group">
<mask id="mask0_29_3641" style="mask-type:luminance" maskUnits="userSpaceOnUse" x="0" y="0" width="20" height="20">
<g id="a">
<path id="Vector" d="M19.3729 10.0007C19.3729 11.232 19.1303 12.4513 18.6591 13.5888C18.1879 14.7264 17.4973 15.76 16.6266 16.6307C15.756 17.5014 14.7223 18.192 13.5847 18.6632C12.4472 19.1344 11.2279 19.377 9.99661 19.377C8.76531 19.377 7.54606 19.1344 6.40848 18.6632C5.2709 18.192 4.23727 17.5014 3.3666 16.6307C2.49594 15.76 1.80529 14.7264 1.33409 13.5888C0.862886 12.4513 0.620361 11.232 0.620361 10.0007C0.620361 7.51397 1.60821 5.12908 3.3666 3.37069C5.12499 1.6123 7.50988 0.624451 9.99661 0.624451C12.4833 0.624451 14.8682 1.6123 16.6266 3.37069C18.385 5.12908 19.3729 7.51397 19.3729 10.0007Z" fill="white"/>
</g>
</mask>
<g mask="url(#mask0_29_3641)">
<g id="Group_2">
<path id="Vector_2" d="M0.625 19.375V13.125H19.375V19.375H0.625Z" fill="#27AE60"/>
<path id="Vector_3" d="M0.625 13.125V6.875H19.375V13.125H0.625Z" fill="white"/>
<path id="Vector_4" d="M0.625 6.875V0.625H19.375V6.875H0.625Z" fill="#F39C12"/>
<g id="Group_3">
<path id="Vector_5" d="M9.99658 12.7359C11.5062 12.7359 12.73 11.5121 12.73 10.0025C12.73 8.49289 11.5062 7.2691 9.99658 7.2691C8.48697 7.2691 7.26318 8.49289 7.26318 10.0025C7.26318 11.5121 8.48697 12.7359 9.99658 12.7359Z" fill="#000088"/>
<path id="Vector_6" d="M9.9967 12.3942C11.3176 12.3942 12.3884 11.3234 12.3884 10.0025C12.3884 8.68159 11.3176 7.61078 9.9967 7.61078C8.67579 7.61078 7.60498 8.68159 7.60498 10.0025C7.60498 11.3234 8.67579 12.3942 9.9967 12.3942Z" fill="white"/>
<g id="Group_4">
<path id="Vector_7" d="M9.99666 10.4808C10.2608 10.4808 10.475 10.2667 10.475 10.0025C10.475 9.73832 10.2608 9.52415 9.99666 9.52415C9.73247 9.52415 9.51831 9.73832 9.51831 10.0025C9.51831 10.2667 9.73247 10.4808 9.99666 10.4808Z" fill="#000088"/>
<g id="Group_5">
<path id="Vector_8" d="M12.3528 10.4333C12.4183 10.442 12.4784 10.3959 12.4871 10.3304C12.4957 10.265 12.4497 10.2049 12.3842 10.1962C12.3187 10.1876 12.2586 10.2336 12.25 10.2991C12.2413 10.3646 12.2874 10.4247 12.3528 10.4333Z" fill="#000088"/>
<path id="Vector_9" d="M9.99655 12.3942L10.0786 10.9592L9.99655 10.2758L9.91455 10.9592L9.99655 12.3942Z" fill="#000088"/>
</g>
<g id="Group_6">
<path id="Vector_10" d="M12.1367 11.0023C12.1839 11.0423 12.2539 11.0371 12.293 10.9908C12.3321 10.9444 12.3256 10.8744 12.2784 10.8344C12.2311 10.7945 12.1612 10.7997 12.122 10.846C12.0829 10.8924 12.0895 10.9624 12.1367 11.0023Z" fill="#000088"/>
<path id="Vector_11" d="M9.35521 12.295L9.81381 10.9727L9.94765 10.2848L9.69927 10.8938L9.35521 12.295Z" fill="#000088"/>
</g>
<g id="Group_7">
<path id="Vector_12" d="M11.8172 11.549C11.8672 11.5917 11.9423 11.5858 11.9849 11.5359C12.0275 11.4859 12.0215 11.4109 11.9714 11.3682C11.9214 11.3255 11.8463 11.3314 11.8037 11.3813C11.7612 11.4313 11.7672 11.5063 11.8172 11.549Z" fill="#000088"/>
<path id="Vector_13" d="M8.79865 12.0721L9.58776 10.8734L9.86112 10.2402L9.44901 10.7888L8.79865 12.0721Z" fill="#000088"/>
</g>
<g id="Group_8">
<path id="Vector_14" d="M11.3577 11.9735C11.3979 12.0259 11.473 12.0358 11.5254 11.9957C11.5778 11.9555 11.5877 11.8805 11.5476 11.828C11.5074 11.7756 11.4324 11.7657 11.3799 11.8058C11.3275 11.846 11.3176 11.9211 11.3577 11.9735Z" fill="#000088"/>
<path id="Vector_15" d="M8.30521 11.6933L9.37804 10.7368L9.80333 10.1957L9.2621 10.6208L8.30521 11.6933Z" fill="#000088"/>
</g>
<g id="Group_9">
<path id="Vector_16" d="M10.8034 12.2602C10.8295 12.3202 10.8995 12.3475 10.9596 12.3213C11.0198 12.295 11.0475 12.2251 11.0214 12.1651C10.9953 12.1051 10.9253 12.0777 10.8652 12.104C10.805 12.1302 10.7773 12.2002 10.8034 12.2602Z" fill="#000088"/>
<path id="Vector_17" d="M7.92617 11.1994L9.20972 10.5498L9.75943 10.1376L9.1264 10.4104L7.92617 11.1994Z" fill="#000088"/>
</g>
<g id="Group_10">
<path id="Vector_18" d="M10.2115 12.4165C10.2321 12.4677 10.2921 12.4905 10.3456 12.4676C10.3991 12.4446 10.4258 12.3846 10.4052 12.3335C10.3846 12.2823 10.3246 12.2595 10.2711 12.2824C10.2176 12.3053 10.1909 12.3654 10.2115 12.4165Z" fill="#000088"/>
<path id="Vector_19" d="M7.68924 10.6396L9.09572 10.3042L9.72932 10.0548L9.04674 10.1826L7.68924 10.6396Z" fill="#000088"/>
</g>
<g id="Group_11">
<path id="Vector_20" d="M9.56582 12.3589C9.55717 12.4243 9.60323 12.4844 9.66871 12.4931C9.73418 12.5018 9.79428 12.4557 9.80293 12.3902C9.81159 12.3247 9.76552 12.2646 9.70005 12.256C9.63457 12.2473 9.57448 12.2934 9.56582 12.3589Z" fill="#000088"/>
<path id="Vector_21" d="M7.605 10.0025L9.04004 10.0845L9.72339 10.0025L9.04004 9.9205L7.605 10.0025Z" fill="#000088"/>
</g>
<g id="Group_12">
<path id="Vector_22" d="M8.9953 12.1404C8.95619 12.1867 8.96276 12.2567 9.00997 12.2967C9.05717 12.3366 9.12714 12.3314 9.16625 12.2851C9.20536 12.2387 9.19879 12.1687 9.15159 12.1288C9.10438 12.0888 9.03441 12.094 8.9953 12.1404Z" fill="#000088"/>
<path id="Vector_23" d="M7.68987 9.36485L9.04698 9.82215L9.7294 9.95009L9.09599 9.70046L7.68987 9.36485Z" fill="#000088"/>
</g>
<g id="Group_13">
<path id="Vector_24" d="M8.44877 11.8246C8.40619 11.8745 8.41221 11.9496 8.46223 11.9923C8.51226 12.0349 8.58733 12.029 8.62992 11.9791C8.67251 11.9292 8.66648 11.8541 8.61646 11.8114C8.56644 11.7688 8.49136 11.7746 8.44877 11.8246Z" fill="#000088"/>
<path id="Vector_25" d="M7.92513 8.80656L9.12536 9.59555L9.75839 9.86835L9.20868 9.45612L7.92513 8.80656Z" fill="#000088"/>
</g>
<g id="Group_14">
<path id="Vector_26" d="M8.02491 11.3638C7.97247 11.404 7.96255 11.4791 8.00274 11.5315C8.04293 11.584 8.11801 11.5939 8.17044 11.5537C8.22288 11.5135 8.2328 11.4384 8.19261 11.386C8.15242 11.3336 8.07734 11.3236 8.02491 11.3638Z" fill="#000088"/>
<path id="Vector_27" d="M8.30476 8.31025L9.26175 9.38324L9.80308 9.80857L9.37775 9.26724L8.30476 8.31025Z" fill="#000088"/>
</g>
<g id="Group_15">
<path id="Vector_28" d="M7.73891 10.8094C7.67873 10.8357 7.65109 10.9056 7.67718 10.9656C7.70327 11.0256 7.77321 11.053 7.8334 11.0267C7.89359 11.0005 7.92123 10.9305 7.89514 10.8705C7.86905 10.8105 7.7991 10.7831 7.73891 10.8094Z" fill="#000088"/>
<path id="Vector_29" d="M8.79929 7.93225L9.44965 9.21572L9.86177 9.76445L9.58842 9.13112L8.79929 7.93225Z" fill="#000088"/>
</g>
<g id="Group_16">
<path id="Vector_30" d="M7.5869 10.2218C7.53342 10.2447 7.50675 10.3048 7.52734 10.3559C7.54793 10.4071 7.60797 10.4299 7.66146 10.407C7.71494 10.384 7.74161 10.324 7.72102 10.2728C7.70044 10.2217 7.64039 10.1989 7.5869 10.2218Z" fill="#000088"/>
<path id="Vector_31" d="M9.35595 7.71002L9.69972 9.11119L9.9479 9.72017L9.81417 9.03228L9.35595 7.71002Z" fill="#000088"/>
</g>
<g id="Group_17">
<path id="Vector_32" d="M7.64033 9.57168C7.57485 9.56303 7.51476 9.60909 7.5061 9.67457C7.49745 9.74004 7.54351 9.80014 7.60898 9.80879C7.67446 9.81745 7.73456 9.77138 7.74321 9.70591C7.75187 9.64043 7.7058 9.58034 7.64033 9.57168Z" fill="#000088"/>
<path id="Vector_33" d="M9.99661 7.61077L9.91461 9.04581L9.99661 9.72916L10.0786 9.04581L9.99661 7.61077Z" fill="#000088"/>
</g>
<g id="Group_18">
<path id="Vector_34" d="M7.85646 9.00266C7.80924 8.96269 7.73926 8.96788 7.70014 9.01425C7.66102 9.06062 7.66759 9.13061 7.7148 9.17057C7.76202 9.21054 7.832 9.20535 7.87112 9.15898C7.91024 9.11261 7.90367 9.04262 7.85646 9.00266Z" fill="#000088"/>
<path id="Vector_35" d="M10.638 7.70999L10.1794 9.03231L10.0455 9.72021L10.2939 9.11119L10.638 7.70999Z" fill="#000088"/>
</g>
<g id="Group_19">
<path id="Vector_36" d="M8.17547 8.45607C8.12544 8.41339 8.05037 8.41927 8.00778 8.46921C7.96519 8.51914 7.97122 8.59421 8.02124 8.63689C8.07127 8.67957 8.14634 8.67369 8.18893 8.62375C8.23152 8.57382 8.22549 8.49874 8.17547 8.45607Z" fill="#000088"/>
<path id="Vector_37" d="M11.194 7.93294L10.4049 9.13165L10.1316 9.76491L10.5437 9.21625L11.194 7.93294Z" fill="#000088"/>
</g>
<g id="Group_20">
<path id="Vector_38" d="M8.63491 8.0314C8.59473 7.97897 8.51965 7.96905 8.46723 8.00923C8.4148 8.04942 8.40488 8.12449 8.44506 8.17692C8.48525 8.22934 8.56032 8.23927 8.61275 8.19908C8.66517 8.1589 8.6751 8.08382 8.63491 8.0314Z" fill="#000088"/>
<path id="Vector_39" d="M11.6882 8.31107L10.6153 9.26794L10.1901 9.8092L10.7313 9.38392L11.6882 8.31107Z" fill="#000088"/>
</g>
<g id="Group_21">
<path id="Vector_40" d="M9.19025 7.74432C9.16415 7.6843 9.09421 7.65694 9.03402 7.6832C8.97383 7.70947 8.94619 7.77941 8.97229 7.83943C8.99838 7.89944 9.06832 7.92681 9.12851 7.90054C9.1887 7.87428 9.21634 7.80434 9.19025 7.74432Z" fill="#000088"/>
<path id="Vector_41" d="M12.0677 8.80534L10.784 9.4549L10.2342 9.86714L10.8673 9.59434L12.0677 8.80534Z" fill="#000088"/>
</g>
<g id="Group_22">
<path id="Vector_42" d="M9.78165 7.58848C9.76106 7.53735 9.70102 7.5145 9.64753 7.53743C9.59405 7.56037 9.56738 7.62042 9.58797 7.67155C9.60855 7.72269 9.6686 7.74554 9.72209 7.7226C9.77557 7.69966 9.80224 7.63961 9.78165 7.58848Z" fill="#000088"/>
<path id="Vector_43" d="M12.3039 9.36544L10.8974 9.70076L10.2638 9.95021L10.9464 9.82239L12.3039 9.36544Z" fill="#000088"/>
</g>
<g id="Group_23">
<path id="Vector_44" d="M10.4276 7.64613C10.4362 7.58066 10.3902 7.52056 10.3247 7.51191C10.2592 7.50325 10.1991 7.54931 10.1905 7.61479C10.1818 7.68027 10.2279 7.74036 10.2934 7.74902C10.3588 7.75767 10.4189 7.71161 10.4276 7.64613Z" fill="#000088"/>
<path id="Vector_45" d="M12.3884 10.0025L10.9534 9.9205L10.27 10.0025L10.9534 10.0845L12.3884 10.0025Z" fill="#000088"/>
</g>
<g id="Group_24">
<path id="Vector_46" d="M10.9987 7.86409C11.0378 7.81771 11.0312 7.74771 10.984 7.70775C10.9368 7.66778 10.8668 7.67298 10.8277 7.71936C10.7885 7.76574 10.7951 7.83574 10.8424 7.87571C10.8896 7.91568 10.9596 7.91048 10.9987 7.86409Z" fill="#000088"/>
<path id="Vector_47" d="M12.3041 10.6408L10.9467 10.1831L10.264 10.055L10.8976 10.3049L12.3041 10.6408Z" fill="#000088"/>
</g>
<g id="Group_25">
<path id="Vector_48" d="M11.5437 8.18141C11.5863 8.13147 11.5802 8.05639 11.5302 8.01371C11.4802 7.97103 11.4051 7.97691 11.3625 8.02685C11.3199 8.07679 11.326 8.15187 11.376 8.19455C11.426 8.23723 11.5011 8.23134 11.5437 8.18141Z" fill="#000088"/>
<path id="Vector_49" d="M12.0675 11.1997L10.8671 10.4107L10.234 10.1379L10.7838 10.5501L12.0675 11.1997Z" fill="#000088"/>
</g>
<g id="Group_26">
<path id="Vector_50" d="M11.9682 8.64087C12.0207 8.60069 12.0306 8.5256 11.9905 8.47316C11.9503 8.42072 11.8752 8.41078 11.8227 8.45096C11.7703 8.49114 11.7604 8.56623 11.8005 8.61867C11.8407 8.67111 11.9158 8.68105 11.9682 8.64087Z" fill="#000088"/>
<path id="Vector_51" d="M11.688 11.6946L10.7311 10.6213L10.1898 10.1959L10.6151 10.7373L11.688 11.6946Z" fill="#000088"/>
</g>
<g id="Group_27">
<path id="Vector_52" d="M12.2542 9.19392C12.3144 9.16766 12.3421 9.09772 12.316 9.03771C12.2899 8.97769 12.2199 8.95034 12.1597 8.9766C12.0996 9.00286 12.0719 9.0728 12.098 9.13281C12.1241 9.19282 12.1941 9.22018 12.2542 9.19392Z" fill="#000088"/>
<path id="Vector_53" d="M11.1941 12.0708L10.5437 10.7875L10.1316 10.2389L10.405 10.8721L11.1941 12.0708Z" fill="#000088"/>
</g>
<g id="Group_28">
<path id="Vector_54" d="M12.4063 9.7832C12.4597 9.76026 12.4864 9.70022 12.4658 9.64908C12.4452 9.59795 12.3852 9.5751 12.3317 9.59804C12.2782 9.62098 12.2516 9.68102 12.2721 9.73216C12.2927 9.78329 12.3528 9.80614 12.4063 9.7832Z" fill="#000088"/>
<path id="Vector_55" d="M10.6372 12.295L10.2934 10.8938L10.0453 10.2848L10.179 10.9727L10.6372 12.295Z" fill="#000088"/>
</g>
</g>
</g>
</g>
</g>
</g>
</g>
</g>
<defs>
<clipPath id="clip0_29_3641">
<rect width="20" height="20" fill="white"/>
</clipPath>
</defs>
</svg>
