<svg width="21" height="20" viewBox="0 0 21 20" fill="none" xmlns="http://www.w3.org/2000/svg">
<g id="Frame" clip-path="url(#clip0_1_858)">
<g id="Group">
<path id="Vector" d="M16.3851 3.70117C16.1174 3.70117 15.8995 3.91902 15.8995 4.18672C15.8995 4.45441 16.1174 4.67227 16.3851 4.67227C16.6528 4.67227 16.8706 4.45445 16.8706 4.18672C16.8706 3.91898 16.6528 3.70117 16.3851 3.70117ZM10.5714 5.6959C8.19786 5.6959 6.26685 7.62691 6.26685 10.0004C6.26685 12.3739 8.19786 14.305 10.5714 14.305C12.9449 14.305 14.8759 12.374 14.8759 10.0005C14.8759 7.62695 12.9449 5.6959 10.5714 5.6959Z" fill="white"/>
<path id="Vector_2" d="M15.0887 0H6.05411C3.03094 0 0.571411 2.45953 0.571411 5.48273V14.5173C0.571411 17.5405 3.03094 20 6.05411 20H15.0887C18.1119 20 20.5714 17.5405 20.5714 14.5173V5.48273C20.5714 2.45953 18.1119 0 15.0887 0ZM10.5714 15.4856C7.54661 15.4856 5.08582 13.0248 5.08582 10C5.08582 6.9752 7.54665 4.51445 10.5714 4.51445C13.5962 4.51445 16.057 6.97523 16.057 10C16.057 13.0248 13.5962 15.4856 10.5714 15.4856ZM16.3851 5.85297C15.4661 5.85297 14.7185 5.10531 14.7185 4.18633C14.7185 3.26734 15.4661 2.51965 16.3851 2.51965C17.3041 2.51965 18.0518 3.2673 18.0518 4.18629C18.0518 5.10527 17.3041 5.85297 16.3851 5.85297Z" fill="white"/>
</g>
</g>
<defs>
<clipPath id="clip0_1_858">
<rect width="20" height="20" fill="white" transform="translate(0.571411)"/>
</clipPath>
</defs>
</svg>
