<svg width="21" height="20" viewBox="0 0 21 20" fill="none" xmlns="http://www.w3.org/2000/svg">
<g id="Frame" clip-path="url(#clip0_1_864)">
<g id="Group">
<path id="Vector" d="M19.1315 5.49171C18.9154 4.68845 18.2821 4.05525 17.4789 3.83895C16.0117 3.4375 10.1426 3.4375 10.1426 3.4375C10.1426 3.4375 4.27372 3.4375 2.80647 3.82375C2.01877 4.03981 1.37002 4.68859 1.15395 5.49171C0.767822 6.95884 0.767822 10.0015 0.767822 10.0015C0.767822 10.0015 0.767822 13.0595 1.15395 14.5113C1.37022 15.3144 2.00333 15.9476 2.80659 16.1639C4.28916 16.5655 10.1428 16.5655 10.1428 16.5655C10.1428 16.5655 16.0117 16.5655 17.4789 16.1792C18.2822 15.9631 18.9154 15.3299 19.1317 14.5267C19.5177 13.0595 19.5177 10.0169 19.5177 10.0169C19.5177 10.0169 19.5331 6.95881 19.1315 5.49171ZM8.27397 12.8124V7.19055L13.1544 10.0015L8.27397 12.8124Z" fill="white"/>
</g>
</g>
<defs>
<clipPath id="clip0_1_864">
<rect width="20" height="20" fill="white" transform="translate(0.142822)"/>
</clipPath>
</defs>
</svg>
