<svg width="21" height="20" viewBox="0 0 21 20" fill="none" xmlns="http://www.w3.org/2000/svg">
<g id="Frame" clip-path="url(#clip0_1_869)">
<g id="Group">
<path id="Vector" d="M20.7143 3.79875C19.9705 4.125 19.178 4.34125 18.3518 4.44625C19.2018 3.93875 19.8505 3.14125 20.1555 2.18C19.363 2.6525 18.488 2.98625 17.5555 3.1725C16.803 2.37125 15.7305 1.875 14.5605 1.875C12.2905 1.875 10.463 3.7175 10.463 5.97625C10.463 6.30125 10.4905 6.61375 10.558 6.91125C7.14929 6.745 4.13304 5.11125 2.10679 2.6225C1.75304 3.23625 1.54554 3.93875 1.54554 4.695C1.54554 6.115 2.27679 7.37375 3.36679 8.1025C2.70804 8.09 2.06179 7.89875 1.51429 7.5975V7.6425C1.51429 9.635 2.93554 11.29 4.79929 11.6712C4.46554 11.7625 4.10179 11.8062 3.72429 11.8062C3.46179 11.8062 3.19679 11.7913 2.94804 11.7362C3.47929 13.36 4.98679 14.5538 6.77929 14.5925C5.38429 15.6838 3.61304 16.3412 1.69554 16.3412C1.35929 16.3412 1.03679 16.3263 0.714294 16.285C2.53054 17.4563 4.68304 18.125 7.00429 18.125C14.5493 18.125 18.6743 11.875 18.6743 6.4575C18.6743 6.27625 18.668 6.10125 18.6593 5.9275C19.473 5.35 20.1568 4.62875 20.7143 3.79875Z" fill="white"/>
</g>
</g>
<defs>
<clipPath id="clip0_1_869">
<rect width="20" height="20" fill="white" transform="translate(0.714294)"/>
</clipPath>
</defs>
</svg>
