<svg width="10" height="17" viewBox="0 0 10 17" fill="none" xmlns="http://www.w3.org/2000/svg">
<path d="M9.5986 7.98105L2.81027 1.19285C2.65326 1.03572 2.44367 0.949158 2.22019 0.949158C1.99671 0.949158 1.78713 1.03572 1.63012 1.19285L1.13021 1.69264C0.80491 2.01831 0.80491 2.54761 1.13021 2.87279L6.83053 8.57311L1.12388 14.2798C0.966876 14.4369 0.880188 14.6464 0.880188 14.8697C0.880188 15.0933 0.966876 15.3028 1.12388 15.46L1.62379 15.9597C1.78092 16.1168 1.99039 16.2034 2.21387 16.2034C2.43735 16.2034 2.64694 16.1168 2.80394 15.9597L9.5986 9.16529C9.75597 9.00767 9.84241 8.79721 9.84192 8.57348C9.84241 8.34889 9.75597 8.13856 9.5986 7.98105Z" fill="white"/>
</svg>
