<svg width="20" height="20" viewBox="0 0 20 20" fill="none" xmlns="http://www.w3.org/2000/svg">
<g id="Frame" clip-path="url(#clip0_92_32838)">
<g id="Group">
<g id="Layer 2">
<path id="Vector" d="M17.5577 7.34987C17.4075 7.23785 17.2902 7.08738 17.2184 6.91432C17.1465 6.74126 17.1227 6.55202 17.1493 6.36654C17.4993 4.16654 17.0993 3.49154 16.7993 3.19154C16.4993 2.89154 15.8327 2.49987 13.6327 2.84987C13.4473 2.87477 13.2587 2.8501 13.0859 2.77837C12.9132 2.70664 12.7626 2.59042 12.6493 2.44154C11.1993 0.508203 10.441 0.283203 9.99935 0.283203C9.55768 0.283203 8.79935 0.508203 7.34935 2.44154C7.23614 2.59042 7.0855 2.70664 6.91277 2.77837C6.74004 2.8501 6.55138 2.87477 6.36602 2.84987C4.16602 2.49987 3.49935 2.89987 3.19935 3.19154C2.89935 3.4832 2.49935 4.16654 2.84935 6.36654C2.87603 6.55202 2.85218 6.74126 2.78031 6.91432C2.70845 7.08738 2.59123 7.23785 2.44102 7.34987C0.507682 8.79987 0.291016 9.5582 0.291016 9.99987C0.291016 10.4415 0.507682 11.1999 2.44102 12.6499C2.59123 12.7619 2.70845 12.9124 2.78031 13.0854C2.85218 13.2585 2.87603 13.4477 2.84935 13.6332C2.53268 15.8499 2.89935 16.5082 3.19935 16.8082C3.49935 17.1082 4.14935 17.4665 6.36602 17.1499C6.55149 17.1232 6.74074 17.147 6.9138 17.2189C7.08686 17.2908 7.23733 17.408 7.34935 17.5582C8.79935 19.4915 9.55768 19.7165 9.99935 19.7165C10.441 19.7165 11.1993 19.4915 12.6493 17.5582C12.7614 17.408 12.9118 17.2908 13.0849 17.2189C13.258 17.147 13.4472 17.1232 13.6327 17.1499C15.8577 17.4665 16.4993 17.0999 16.7993 16.8082C17.0993 16.5165 17.466 15.8499 17.1493 13.6332C17.1227 13.4477 17.1465 13.2585 17.2184 13.0854C17.2902 12.9124 17.4075 12.7619 17.5577 12.6499C19.491 11.1999 19.7077 10.4415 19.7077 9.99987C19.7077 9.5582 19.491 8.79987 17.5577 7.34987Z" fill="#38E894"/>
<path id="Vector_2" d="M9.58349 12.9169C9.47382 12.9176 9.3651 12.8966 9.26357 12.8551C9.16203 12.8136 9.06969 12.7525 8.99182 12.6753L7.32515 11.0086C7.16823 10.8517 7.08008 10.6389 7.08008 10.4169C7.08008 10.195 7.16823 9.98219 7.32515 9.82527C7.48207 9.66835 7.6949 9.5802 7.91682 9.5802C8.13874 9.5802 8.35157 9.66835 8.50849 9.82527L9.58349 10.9086L12.3252 8.15861C12.4026 8.0805 12.4948 8.01851 12.5963 7.9762C12.6979 7.93389 12.8068 7.91211 12.9168 7.91211C13.0268 7.91211 13.1358 7.93389 13.2373 7.9762C13.3389 8.01851 13.431 8.0805 13.5085 8.15861C13.5866 8.23608 13.6486 8.32824 13.6909 8.42979C13.7332 8.53134 13.755 8.64026 13.755 8.75027C13.755 8.86028 13.7332 8.96921 13.6909 9.07076C13.6486 9.1723 13.5866 9.26447 13.5085 9.34194L10.1752 12.6753C10.0973 12.7525 10.0049 12.8136 9.90341 12.8551C9.80188 12.8966 9.69316 12.9176 9.58349 12.9169Z" fill="white"/>
</g>
</g>
</g>
<defs>
<clipPath id="clip0_92_32838">
<rect width="20" height="20" fill="white"/>
</clipPath>
</defs>
</svg>
