<svg width="10" height="11" viewBox="0 0 10 11" fill="none" xmlns="http://www.w3.org/2000/svg">
<g id="Frame" clip-path="url(#clip0_92_36107)">
<g id="Group">
<path id="Vector" d="M5.41926 0.914062C2.88768 0.914062 0.838867 2.96264 0.838867 5.49445C0.838867 8.026 2.88745 10.0748 5.41926 10.0748C7.95084 10.0748 9.99965 8.02627 9.99965 5.49445C9.99965 2.96288 7.95107 0.914062 5.41926 0.914062ZM5.28373 7.63828C5.02447 7.63828 4.82551 7.42123 4.82551 7.17401C4.82551 6.92078 5.0305 6.70978 5.28373 6.70978C5.53697 6.70978 5.74796 6.9208 5.74796 7.17403C5.74796 7.42121 5.54297 7.63828 5.28373 7.63828ZM5.97104 5.29292C5.63944 5.55218 5.63339 5.73305 5.63339 6.04655C5.63339 6.16113 5.5731 6.29377 5.27768 6.29377C5.03046 6.29377 4.94608 6.20332 4.94608 5.88982C4.94608 5.3713 5.17519 5.1241 5.35003 4.97338C5.549 4.80455 5.88664 4.61767 5.88664 4.2921C5.88664 4.01474 5.64547 3.8821 5.34401 3.8821C4.72903 3.8821 4.86169 4.34637 4.53608 4.34637C4.3733 4.34637 4.17434 4.23782 4.17434 4.0027C4.17434 3.67713 4.54814 3.19478 5.36209 3.19478C6.13382 3.19478 6.6463 3.62286 6.6463 4.1896C6.6463 4.75633 6.13382 5.16631 5.97104 5.29292Z" fill="#999999"/>
</g>
</g>
<defs>
<clipPath id="clip0_92_36107">
<rect width="9.16078" height="9.16078" fill="white" transform="translate(0.838867 0.914062)"/>
</clipPath>
</defs>
</svg>
