<svg width="18" height="18" viewBox="0 0 18 18" fill="none" xmlns="http://www.w3.org/2000/svg">
<g id="Frame" clip-path="url(#clip0_29_3951)">
<g id="Group">
<path id="Vector" d="M13.1275 0H4.87244C2.18573 0 0 2.18573 0 4.87244V13.1277C0 15.8142 2.18573 18 4.87244 18H13.1277C15.8142 18 18 15.8142 18 13.1277V4.87244C18 2.18573 15.8142 0 13.1275 0ZM16.9447 13.1277C16.9447 15.2324 15.2324 16.9447 13.1275 16.9447H4.87244C2.7676 16.9447 1.05525 15.2324 1.05525 13.1277V4.87244C1.05525 2.7676 2.7676 1.05525 4.87244 1.05525H13.1277C15.2324 1.05525 16.9447 2.7676 16.9447 4.87244V13.1277Z" fill="#D42978"/>
<path id="Vector_2" d="M9.0001 4.07826C6.28622 4.07826 4.07837 6.28607 4.07837 8.99999C4.07837 11.7139 6.28618 13.9217 9.0001 13.9217C11.714 13.9217 13.9218 11.7139 13.9218 8.99999C13.9218 6.28607 11.714 4.07826 9.0001 4.07826ZM9.0001 12.8665C6.86823 12.8665 5.13362 11.132 5.13362 8.99999C5.13362 6.86811 6.86823 5.13351 9.0001 5.13351C11.1322 5.13351 12.8666 6.86811 12.8666 8.99999C12.8666 11.132 11.1322 12.8665 9.0001 12.8665ZM14.0395 2.33032C13.2375 2.33032 12.5852 2.98279 12.5852 3.78463C12.5852 4.58665 13.2375 5.23908 14.0395 5.23908C14.8416 5.23908 15.494 4.58665 15.494 3.78467C15.494 2.98268 14.8415 2.33032 14.0395 2.33032ZM14.0395 4.18372C13.8195 4.18372 13.6404 4.00464 13.6404 3.78463C13.6404 3.56452 13.8195 3.38557 14.0395 3.38557C14.2597 3.38557 14.4387 3.56452 14.4387 3.78463C14.4387 4.00464 14.2597 4.18372 14.0395 4.18372Z" fill="#D42978"/>
</g>
</g>
<defs>
<clipPath id="clip0_29_3951">
<rect width="18" height="18" fill="white"/>
</clipPath>
</defs>
</svg>
