<svg width="58" height="58" viewBox="0 0 58 58" fill="none" xmlns="http://www.w3.org/2000/svg">
<g id="Frame">
<g id="Group">
<g id="1080_HD">
<path id="Vector" d="M46.048 12.5918H11.9515C10.7604 12.5931 9.61855 13.0669 8.77634 13.9091C7.93413 14.7513 7.46036 15.8931 7.45898 17.0842V40.916C7.46036 42.107 7.93412 43.2489 8.77633 44.0911C9.61854 44.9333 10.7604 45.4071 11.9515 45.4085H46.048C47.2391 45.4071 48.381 44.9333 49.2232 44.0911C50.0654 43.2489 50.5391 42.107 50.5405 40.916V17.0842C50.5391 15.8931 50.0654 14.7513 49.2232 13.9091C48.381 13.0669 47.2391 12.5931 46.048 12.5918ZM28.3946 41.222C28.3946 41.4624 28.2991 41.6929 28.1292 41.8629C27.9592 42.0328 27.7287 42.1283 27.4884 42.1283C27.248 42.1283 27.0175 42.0328 26.8475 41.8629C26.6776 41.6929 26.5821 41.4624 26.5821 41.222V39.775H24.7311V41.222C24.7311 41.4624 24.6356 41.6929 24.4657 41.8629C24.2957 42.0328 24.0652 42.1283 23.8248 42.1283C23.5845 42.1283 23.354 42.0328 23.184 41.8629C23.0141 41.6929 22.9186 41.4624 22.9186 41.222V36.5154C22.9186 36.2751 23.0141 36.0446 23.184 35.8746C23.354 35.7047 23.5845 35.6092 23.8248 35.6092C24.0652 35.6092 24.2957 35.7047 24.4657 35.8746C24.6356 36.0446 24.7311 36.2751 24.7311 36.5154V37.9625H26.5821V36.5154C26.5821 36.2751 26.6776 36.0446 26.8475 35.8746C27.0175 35.7047 27.248 35.6092 27.4884 35.6092C27.7287 35.6092 27.9592 35.7047 28.1292 35.8746C28.2991 36.0446 28.3946 36.2751 28.3946 36.5154V41.222ZM31.8214 42.1283H30.7827C30.5423 42.1283 30.3118 42.0328 30.1419 41.8629C29.9719 41.6929 29.8764 41.4624 29.8764 41.222V36.5154C29.8764 36.2751 29.9719 36.0446 30.1419 35.8746C30.3118 35.7047 30.5423 35.6092 30.7827 35.6092H31.8215C32.686 35.6092 33.515 35.9526 34.1263 36.5639C34.7376 37.1752 35.081 38.0043 35.081 38.8687C35.081 39.7332 34.7376 40.5623 34.1263 41.1736C33.515 41.7849 32.686 42.1283 31.8215 42.1283H31.8214ZM48.728 33.2131H9.27148V17.0842C9.27229 16.3737 9.55491 15.6925 10.0573 15.1901C10.5598 14.6877 11.241 14.4051 11.9515 14.4043H46.048C46.7585 14.4051 47.4397 14.6877 47.9422 15.1901C48.4446 15.6925 48.7272 16.3737 48.728 17.0842V33.2131Z" fill="white"/>
<path id="Vector_2" d="M31.8213 37.4219H31.6889V40.3161H31.8215C32.2052 40.3161 32.5733 40.1636 32.8447 39.8922C33.1161 39.6208 33.2685 39.2528 33.2685 38.869C33.2685 38.4852 33.1161 38.1171 32.8447 37.8458C32.5733 37.5744 32.2052 37.4219 31.8215 37.4219H31.8213ZM18.424 18.6929C18.2599 18.6235 18.079 18.604 17.9039 18.6369C17.7288 18.6699 17.5673 18.7537 17.4396 18.8779L15.4882 20.7755C15.4015 20.8581 15.332 20.9571 15.2837 21.0668C15.2355 21.1764 15.2095 21.2946 15.2072 21.4143C15.2049 21.5341 15.2264 21.6532 15.2704 21.7646C15.3144 21.876 15.3801 21.9776 15.4636 22.0635C15.5471 22.1494 15.6468 22.2179 15.757 22.265C15.8671 22.3121 15.9855 22.3369 16.1053 22.3379C16.2251 22.339 16.3439 22.3163 16.4549 22.2711C16.5658 22.2259 16.6668 22.1592 16.7518 22.0748L17.165 21.673V28.6976C17.165 28.9379 17.2605 29.1684 17.4305 29.3384C17.6004 29.5084 17.8309 29.6038 18.0713 29.6038C18.3116 29.6038 18.5421 29.5084 18.7121 29.3384C18.882 29.1684 18.9775 28.9379 18.9775 28.6976V19.5276C18.9775 19.3494 18.925 19.1752 18.8266 19.0268C18.7281 18.8783 18.5881 18.7623 18.424 18.6929ZM23.9115 18.6213C23.0192 18.6224 22.1637 18.9773 21.5327 19.6083C20.9018 20.2392 20.5469 21.0947 20.5459 21.987V26.2381C20.5459 27.1308 20.9005 27.9869 21.5317 28.618C22.1629 29.2492 23.019 29.6038 23.9116 29.6038C24.8042 29.6038 25.6603 29.2492 26.2915 28.618C26.9227 27.9869 27.2773 27.1308 27.2773 26.2381V21.987C27.2762 21.0947 26.9213 20.2392 26.2903 19.6083C25.6593 18.9773 24.8038 18.6223 23.9115 18.6213ZM25.4648 26.2381C25.4648 26.6501 25.3012 27.0452 25.0099 27.3365C24.7186 27.6277 24.3235 27.7914 23.9115 27.7914C23.4996 27.7914 23.1045 27.6277 22.8132 27.3365C22.5219 27.0452 22.3583 26.6501 22.3583 26.2381V21.987C22.3583 21.5751 22.5219 21.18 22.8132 20.8887C23.1045 20.5974 23.4996 20.4338 23.9115 20.4338C24.3235 20.4338 24.7186 20.5974 25.0099 20.8887C25.3012 21.18 25.4648 21.5751 25.4648 21.987V26.2381ZM39.42 18.6213C38.5277 18.6224 37.6722 18.9773 37.0413 19.6083C36.4103 20.2392 36.0554 21.0947 36.0544 21.987V26.2381C36.0519 26.6818 36.137 27.1215 36.305 27.5321C36.473 27.9427 36.7205 28.3161 37.0333 28.6307C37.3461 28.9453 37.718 29.1949 38.1276 29.3653C38.5372 29.5357 38.9765 29.6234 39.4201 29.6234C39.8637 29.6234 40.303 29.5357 40.7126 29.3653C41.1222 29.1949 41.4941 28.9453 41.8069 28.6307C42.1197 28.3161 42.3672 27.9427 42.5352 27.5321C42.7031 27.1215 42.7883 26.6818 42.7857 26.2381V21.987C42.7847 21.0947 42.4298 20.2393 41.7988 19.6083C41.1679 18.9774 40.3124 18.6225 39.4201 18.6214L39.42 18.6213ZM40.9732 26.2381C40.9732 26.6501 40.8096 27.0451 40.5183 27.3364C40.227 27.6277 39.832 27.7913 39.42 27.7913C39.0081 27.7913 38.613 27.6277 38.3218 27.3364C38.0305 27.0451 37.8668 26.6501 37.8668 26.2381V21.987C37.8668 21.5751 38.0305 21.18 38.3218 20.8888C38.613 20.5975 39.0081 20.4338 39.42 20.4338C39.832 20.4338 40.227 20.5975 40.5183 20.8888C40.8096 21.18 40.9732 21.5751 40.9732 21.987V26.2381ZM35.0076 21.794C35.0066 20.9391 34.6665 20.1194 34.062 19.5149C33.4574 18.9104 32.6378 18.5703 31.7828 18.5693H31.5606C30.8975 18.569 30.2504 18.7732 29.7075 19.1541C29.1647 19.535 28.7526 20.074 28.5274 20.6977C28.3021 21.3214 28.2747 21.9994 28.4489 22.6393C28.6231 23.2791 28.9905 23.8496 29.5008 24.273C28.9904 24.6965 28.623 25.267 28.4488 25.9069C28.2745 26.5467 28.3019 27.2248 28.5271 27.8485C28.7524 28.4723 29.1645 29.0114 29.7073 29.3923C30.2502 29.7732 30.8973 29.9774 31.5605 29.9771H31.7828C32.446 29.9774 33.0931 29.7732 33.6359 29.3923C34.1787 29.0114 34.5909 28.4723 34.8161 27.8486C35.0414 27.2249 35.0687 26.5469 34.8945 25.907C34.7203 25.2671 34.353 24.6966 33.8426 24.2732C34.2072 23.971 34.5006 23.5922 34.702 23.1637C34.9033 22.7351 35.0077 22.2675 35.0076 21.794ZM31.5605 20.3818H31.7828C32.1552 20.3852 32.5112 20.5354 32.7733 20.7999C33.0354 21.0644 33.1825 21.4217 33.1825 21.7941C33.1825 22.1664 33.0354 22.5237 32.7733 22.7882C32.5112 23.0527 32.1552 23.2029 31.7828 23.2063H31.5605C31.3739 23.2079 31.1889 23.1727 31.0161 23.1024C30.8433 23.0322 30.6861 22.9285 30.5537 22.7971C30.4212 22.6658 30.316 22.5096 30.2443 22.3374C30.1725 22.1653 30.1355 21.9806 30.1355 21.7941C30.1355 21.6075 30.1725 21.4228 30.2443 21.2507C30.316 21.0785 30.4212 20.9223 30.5537 20.791C30.6861 20.6597 30.8433 20.5559 31.0161 20.4857C31.1889 20.4155 31.3739 20.3802 31.5605 20.3818ZM31.7828 28.1646H31.5605C31.1859 28.1646 30.8267 28.0158 30.5618 27.7509C30.2969 27.4861 30.1481 27.1268 30.1481 26.7523C30.1481 26.3777 30.2969 26.0185 30.5618 25.7536C30.8267 25.4887 31.1859 25.3399 31.5605 25.3399H31.7828C32.1574 25.3399 32.5166 25.4887 32.7815 25.7536C33.0464 26.0185 33.1952 26.3777 33.1952 26.7523C33.1952 27.1268 33.0464 27.4861 32.7815 27.7509C32.5166 28.0158 32.1574 28.1646 31.7828 28.1646Z" fill="white"/>
</g>
</g>
</g>
</svg>
