<svg width="42" height="42" viewBox="0 0 42 42" fill="none" xmlns="http://www.w3.org/2000/svg">
<g id="Frame" clip-path="url(#clip0_92_31152)">
<g id="Group">
<path id="Vector" d="M21.3824 12.999C16.9697 12.999 13.3799 16.5889 13.3799 21.0012C13.3799 25.414 16.9697 29.0037 21.3824 29.0037C25.7949 29.0037 29.3846 25.414 29.3846 21.0013C29.3846 16.5888 25.7949 12.999 21.3824 12.999ZM26.1335 19.4943L20.4006 25.2271C20.2863 25.3417 20.1504 25.4327 20.0009 25.4946C19.8513 25.5566 19.6909 25.5884 19.529 25.5883C19.3672 25.5885 19.2069 25.5567 19.0574 25.4947C18.9078 25.4327 18.7721 25.3418 18.6579 25.2271L16.467 23.0363C15.9857 22.5553 15.9857 21.7751 16.467 21.2938C16.9479 20.8125 17.7282 20.8125 18.2095 21.2938L19.529 22.6133L24.391 17.7518C24.872 17.2704 25.6522 17.2704 26.1335 17.7518C26.6148 18.2327 26.6148 19.013 26.1335 19.4943Z" fill="white"/>
<path id="Vector_2" d="M39.2235 11.3957L39.2223 11.363C39.2032 10.9282 39.1906 10.4931 39.1845 10.0579C39.1502 7.74207 37.3093 5.82648 34.9932 5.69712C30.1643 5.42757 26.4287 3.85298 23.2368 0.741869L23.2096 0.715947C22.1685 -0.238649 20.5981 -0.238649 19.5566 0.715947L19.5294 0.741869C16.3375 3.85298 12.6019 5.42757 7.77298 5.69737C5.45725 5.82648 3.61598 7.74216 3.58169 10.0581C3.57567 10.4933 3.56309 10.9283 3.54395 11.363L3.54198 11.4389C3.44806 16.363 3.33141 22.4913 5.38153 28.0537C6.50888 31.1126 8.21612 33.7715 10.4556 35.9572C13.0063 38.4464 16.3471 40.4225 20.3853 41.8305C20.5182 41.8767 20.6541 41.9138 20.7921 41.9413C20.9883 41.9805 21.1857 42 21.3831 42C21.5805 42 21.7782 41.9805 21.974 41.9413C22.1125 41.9136 22.249 41.8763 22.3825 41.8298C26.4158 40.4192 29.7531 38.4422 32.3015 35.9534C34.5401 33.7671 36.2474 31.1075 37.3756 28.048C39.4335 22.4689 39.3171 16.329 39.2235 11.3957ZM21.3824 31.4676C15.6107 31.4676 10.9154 26.7723 10.9154 21.0007C10.9154 15.229 15.6108 10.5337 21.3824 10.5337C27.1538 10.5337 31.8494 15.229 31.8494 21.0007C31.8494 26.7724 27.1538 31.4676 21.3824 31.4676Z" fill="white"/>
</g>
</g>
<defs>
<clipPath id="clip0_92_31152">
<rect width="42" height="42" fill="white"/>
</clipPath>
</defs>
</svg>
