<svg width="50" height="50" viewBox="0 0 50 50" fill="none" xmlns="http://www.w3.org/2000/svg">
<g id="Frame">
<g id="Group">
<path id="Vector" d="M48.5352 45.8984H1.46484C0.655762 45.8984 0 45.2427 0 44.4336V5.62061C0 4.81152 0.655762 4.15576 1.46484 4.15576H48.5352C49.3442 4.15576 50 4.81152 50 5.62061V44.4336C50 45.2427 49.3442 45.8984 48.5352 45.8984ZM18.803 20.1096V29.9445C18.803 30.648 19.2044 31.2893 19.8502 31.6182C20.5063 31.9519 21.3047 31.9072 21.912 31.5098L30.2937 26.6171C30.3364 26.5923 30.3776 26.5651 30.4177 26.5361C30.9132 26.1753 31.1974 25.6252 31.1974 25.0271C31.1974 24.4289 30.9132 23.8789 30.4177 23.518C30.3776 23.489 30.3364 23.4619 30.2937 23.4371L21.912 18.5444C21.5763 18.325 21.183 18.2133 20.787 18.2133C20.4662 18.2133 20.1438 18.2869 19.8502 18.4364C19.2039 18.7648 18.803 19.4062 18.803 20.1096ZM34.3975 40.4182V42.9688H39.3128V40.4183L34.3975 40.4182ZM31.4678 40.4182H26.5522V42.9688H31.4678V40.4182ZM23.6226 40.4182H18.7073V42.9688H23.6226V40.4182ZM15.7776 40.4182H10.8623V42.9688H15.7776V40.4182ZM15.7776 9.63594V7.08545H10.8623V9.63594H15.7776ZM18.7073 9.63594H23.6226V7.08545H18.7073V9.63594ZM26.5522 9.63594H31.4678V7.08545H26.5522V9.63594ZM34.3975 9.63594H39.3128V7.08545H34.3975V9.63594ZM47.0703 40.4182H42.2424V42.9688H47.0703V40.4182ZM7.93262 42.9688V40.4183H2.92969V42.9688H7.93262ZM2.92969 9.63594H7.93262V7.08545H2.92969V9.63594ZM42.2425 7.08545V9.63594H47.0703V7.08545H42.2425Z" fill="white"/>
</g>
</g>
</svg>
