<svg width="60" height="60" viewBox="0 0 60 60" fill="none" xmlns="http://www.w3.org/2000/svg">
<g id="Frame" clip-path="url(#clip0_92_32900)">
<g id="Group">
<path id="Vector" d="M36.9776 25.8357H23.0204L23.7708 23.7497H36.2272L36.9776 25.8357ZM37.2939 27.5936H32.0443V30.5564L29.9991 29.3896L27.9538 30.5564V27.5936H22.7041V36.2502H37.2937V27.5936H37.2939ZM14.2679 51.481C7.40508 46.4464 3.37582 38.5122 3.37582 29.9999C3.37582 26.8452 3.92472 23.7268 5.01808 20.768L5.86523 22.832C5.95566 23.0438 6.12586 23.2115 6.33898 23.2988C6.55211 23.3861 6.79103 23.3859 7.00404 23.2983C7.21705 23.2108 7.38702 23.0429 7.47716 22.8309C7.5673 22.619 7.57037 22.3801 7.4857 22.1659L5.83265 18.1388C5.78892 18.0324 5.72466 17.9356 5.64353 17.8541C5.56241 17.7725 5.46601 17.7077 5.35985 17.6634C5.25368 17.6191 5.13983 17.5961 5.02479 17.5958C4.90975 17.5955 4.79577 17.6179 4.68937 17.6616L0.662107 19.3146C0.44722 19.403 0.276222 19.5731 0.186732 19.7875C0.0972424 20.0019 0.0965904 20.243 0.18492 20.4579C0.273249 20.6728 0.443325 20.8438 0.657732 20.9333C0.872139 21.0228 1.11331 21.0234 1.3282 20.9351L3.40265 20.0836C2.21812 23.255 1.61789 26.6144 1.61789 30C1.61789 39.0657 5.92265 47.5342 13.2311 52.8957C13.4187 53.0332 13.6532 53.0905 13.8831 53.0551C14.1129 53.0196 14.3193 52.8944 14.4568 52.7068C14.5943 52.5192 14.6517 52.2846 14.6162 52.0547C14.5808 51.8249 14.4555 51.6185 14.2679 51.481ZM18.2967 47.2316C17.7778 47.7505 16.9287 47.7505 16.4098 47.2316L12.7673 43.5892C12.2484 43.0703 12.2484 42.2212 12.7673 41.7023L14.4857 39.9839C15.525 38.9446 15.8194 37.4642 15.257 36.1063C14.6945 34.7484 13.4394 33.9099 11.9696 33.9099H9.53976C8.80582 33.9099 8.20547 33.3094 8.20547 32.5756V27.4245C8.20547 26.6905 8.80594 26.0902 9.53976 26.0902H11.9698C13.4395 26.0902 14.6945 25.2516 15.2571 23.8936C15.8196 22.5357 15.5251 21.0553 14.4858 20.016L12.7675 18.2977C12.2486 17.7788 12.2486 16.9296 12.7675 16.4107L16.4099 12.7683C16.9288 12.2494 17.7779 12.2494 18.2968 12.7683L20.015 14.4866C21.0544 15.526 22.5348 15.8205 23.8928 15.258C25.2506 14.6955 26.0892 13.4405 26.0892 11.9706V9.54074C26.0892 8.80691 26.6897 8.20644 27.4235 8.20644H32.5746C33.3084 8.20644 33.9089 8.80691 33.9089 9.54074V11.9709C33.9089 13.4406 34.7475 14.6957 36.1055 15.2582C37.4634 15.8207 38.9437 15.5262 39.9831 14.4869L41.7014 12.7686C42.2203 12.2496 43.0695 12.2496 43.5884 12.7686L47.2308 16.411C47.7497 16.9299 47.7497 17.779 47.2308 18.2979L45.5125 20.0162C44.4731 21.0556 44.1786 22.5359 44.7411 23.8939C45.3036 25.2517 46.5586 26.0904 48.0285 26.0904H50.4585C51.1924 26.0904 51.7928 26.6909 51.7928 27.4247V32.5758C51.7928 33.3096 51.1923 33.9101 50.4585 33.9101H48.0284C46.5586 33.9101 45.3035 34.7487 44.741 36.1066C44.1785 37.4644 44.473 38.9448 45.5123 39.9842L47.2307 41.7025C47.7496 42.2214 47.7496 43.0705 47.2307 43.5895L43.5882 47.2319C43.0693 47.7508 42.2202 47.7508 41.7013 47.2319L39.983 45.5135C38.9436 44.4742 37.4632 44.1798 36.1053 44.7422C34.7474 45.3047 33.9088 46.5597 33.9088 48.0296V50.4596C33.9088 51.1935 33.3084 51.7939 32.5745 51.7939H27.4234C26.6896 51.7939 26.0891 51.1934 26.0891 50.4596V48.0293C26.0891 46.5596 25.2505 45.3045 23.8927 44.742C22.5347 44.1795 21.0544 44.474 20.0149 45.5133L18.2967 47.2316ZM17.5711 30C17.5711 36.8637 23.1354 42.428 29.9991 42.428C36.8627 42.428 42.427 36.8637 42.427 30C42.427 23.1364 36.8626 17.5721 29.9991 17.5721C23.1354 17.5721 17.5711 23.1364 17.5711 30ZM52.7062 45.5437C52.5187 45.4062 52.2841 45.3489 52.0543 45.3843C51.8244 45.4197 51.6181 45.545 51.4806 45.7326C46.446 52.595 38.5107 56.6232 29.9991 56.6232C26.8441 56.6232 23.7255 56.0745 20.7667 54.9811L22.8312 54.1339C23.043 54.0434 23.2107 53.8732 23.2979 53.6601C23.3852 53.447 23.385 53.2081 23.2975 52.9951C23.2099 52.782 23.042 52.6121 22.8301 52.5219C22.6182 52.4318 22.3792 52.4287 22.1651 52.5134L18.1378 54.1664C17.9229 54.2548 17.752 54.4249 17.6625 54.6393C17.573 54.8537 17.5723 55.0948 17.6606 55.3097L19.3137 59.337C19.4041 59.5488 19.5743 59.7165 19.7874 59.8037C20.0005 59.891 20.2395 59.8909 20.4525 59.8033C20.6655 59.7157 20.8355 59.5478 20.9256 59.3359C21.0157 59.124 21.0188 58.8851 20.9341 58.6709L20.0828 56.5969C23.2542 57.7812 26.6134 58.3811 29.9991 58.3811C39.0642 58.3811 47.5336 54.0773 52.895 46.7693C53.0325 46.5818 53.0899 46.3473 53.0545 46.1174C53.0191 45.8875 52.8938 45.6812 52.7062 45.5437ZM59.8132 39.5423C59.7695 39.4359 59.7052 39.3391 59.6241 39.2575C59.543 39.176 59.4466 39.1112 59.3404 39.0669C59.2342 39.0226 59.1204 38.9996 59.0053 38.9993C58.8903 38.999 58.7763 39.0213 58.6699 39.0651L56.5961 39.9163C57.7803 36.745 58.3802 33.3855 58.3802 30C58.3802 20.9349 54.0764 12.4655 46.7685 7.10406C46.5808 6.96754 46.3467 6.91096 46.1175 6.9467C45.8882 6.98245 45.6824 7.10761 45.5453 7.29477C45.4081 7.48192 45.3507 7.71582 45.3856 7.94522C45.4206 8.17462 45.545 8.38081 45.7317 8.51863C52.5942 13.5531 56.6225 21.4884 56.6225 30C56.6225 33.1551 56.0737 36.2736 54.9804 39.2327L54.133 37.168C53.9491 36.7206 53.4373 36.5069 52.9897 36.6909C52.5422 36.8748 52.3286 37.3867 52.5125 37.8341L54.1656 41.8614C54.2093 41.9678 54.2736 42.0646 54.3547 42.1461C54.4358 42.2277 54.5322 42.2925 54.6384 42.3368C54.7446 42.3811 54.8584 42.4041 54.9734 42.4044C55.0885 42.4047 55.2025 42.3823 55.3089 42.3386L59.3361 40.6855C59.551 40.5972 59.7219 40.4271 59.8114 40.2127C59.9008 39.9983 59.9015 39.7571 59.8132 39.5423ZM7.29234 14.4576C7.47992 14.595 7.71442 14.6524 7.94427 14.617C8.17411 14.5816 8.38049 14.4563 8.51801 14.2688C13.5525 7.40594 21.487 3.37656 29.9991 3.37656C33.1543 3.37656 36.2729 3.92535 39.2323 5.01847L37.167 5.86621C36.9555 5.95689 36.7883 6.12709 36.7013 6.34004C36.6143 6.55299 36.6146 6.79161 36.702 7.00438C36.7894 7.21715 36.9571 7.38699 37.1687 7.47722C37.3802 7.56746 37.6188 7.57086 37.8329 7.48668L41.8602 5.83363C42.0751 5.74528 42.2461 5.57521 42.3356 5.36082C42.4251 5.14642 42.4258 4.90526 42.3375 4.69035L40.6845 0.663084C40.5961 0.448196 40.426 0.277199 40.2116 0.187709C39.9972 0.0982189 39.7561 0.097567 39.5412 0.185896C39.3263 0.274226 39.1553 0.444302 39.0658 0.658708C38.9763 0.873115 38.9757 1.11429 39.064 1.32918L39.915 3.40246C36.7437 2.21851 33.3845 1.61887 29.9992 1.61887C20.9336 1.61887 12.465 5.92375 7.10367 13.232C7.03559 13.3249 6.98646 13.4302 6.9591 13.5421C6.93173 13.6539 6.92666 13.7701 6.94418 13.8839C6.9617 13.9977 7.00147 14.1069 7.0612 14.2054C7.12094 14.3038 7.19948 14.3895 7.29234 14.4576Z" fill="white"/>
</g>
</g>
<defs>
<clipPath id="clip0_92_32900">
<rect width="60" height="60" fill="white"/>
</clipPath>
</defs>
</svg>
