<svg width="60" height="60" viewBox="0 0 60 60" fill="none" xmlns="http://www.w3.org/2000/svg">
<g id="Frame">
<g id="Group">
<path id="Vector" d="M55.6175 28.6012C55.0468 28.2686 54.3976 28.0944 53.7371 28.0966C53.0765 28.0988 52.4285 28.2773 51.86 28.6138L45 32.6163V46.135L51.86 50.1375C52.4513 50.4825 53.1 50.655 53.75 50.655C54.4059 50.6539 55.05 50.4801 55.6175 50.1512C56.1922 49.8258 56.6696 49.353 57.0005 48.7814C57.3315 48.2099 57.5039 47.5604 57.5 46.9V31.855C57.5 30.4962 56.7963 29.28 55.6175 28.6037V28.6012ZM38.2525 26.6088C39.571 25.6219 40.6414 24.3414 41.3787 22.8688C42.116 21.3961 42.4999 19.7719 42.5 18.125C42.5 15.3071 41.3806 12.6046 39.388 10.612C37.3954 8.61942 34.6929 7.5 31.875 7.5C29.0571 7.5 26.3546 8.61942 24.362 10.612C22.3694 12.6046 21.25 15.3071 21.25 18.125C21.249 19.6736 21.5874 21.2036 22.2413 22.6073C22.8953 24.0111 23.8488 25.2544 25.035 26.25H18.2338C19.1846 25.375 19.9437 24.3122 20.4628 23.1288C20.982 21.9454 21.25 20.6672 21.25 19.375C21.25 16.8886 20.2623 14.504 18.5041 12.7459C16.746 10.9877 14.3614 10 11.875 10C9.3886 10 7.00403 10.9877 5.24587 12.7459C3.48772 14.504 2.5 16.8886 2.5 19.375C2.5 20.8152 2.83268 22.236 3.47209 23.5266C4.1115 24.8171 5.04036 25.9425 6.18625 26.815C4.01875 27.7975 2.5 29.97 2.5 32.5V46.25C2.5 49.6963 5.30375 52.5 8.75 52.5H36.25C39.6963 52.5 42.5 49.6963 42.5 46.25V32.5C42.5 29.7575 40.7138 27.4488 38.2525 26.6088ZM8.125 19.375C8.125 18.8825 8.222 18.3949 8.41045 17.9399C8.59891 17.485 8.87513 17.0716 9.22335 16.7233C9.57157 16.3751 9.98497 16.0989 10.4399 15.9105C10.8949 15.722 11.3825 15.625 11.875 15.625C12.3675 15.625 12.8551 15.722 13.3101 15.9105C13.765 16.0989 14.1784 16.3751 14.5267 16.7233C14.8749 17.0716 15.1511 17.485 15.3396 17.9399C15.528 18.3949 15.625 18.8825 15.625 19.375C15.625 20.3696 15.2299 21.3234 14.5267 22.0267C13.8234 22.7299 12.8696 23.125 11.875 23.125C10.8804 23.125 9.92661 22.7299 9.22335 22.0267C8.52009 21.3234 8.125 20.3696 8.125 19.375ZM15 46.25H10C9.66848 46.25 9.35054 46.1183 9.11612 45.8839C8.8817 45.6495 8.75 45.3315 8.75 45C8.75 44.6685 8.8817 44.3505 9.11612 44.1161C9.35054 43.8817 9.66848 43.75 10 43.75H15C15.3315 43.75 15.6495 43.8817 15.8839 44.1161C16.1183 44.3505 16.25 44.6685 16.25 45C16.25 45.3315 16.1183 45.6495 15.8839 45.8839C15.6495 46.1183 15.3315 46.25 15 46.25ZM31.875 23.125C30.5489 23.125 29.2772 22.5982 28.3395 21.6605C27.4018 20.7229 26.875 19.4511 26.875 18.125C26.875 16.7989 27.4018 15.5271 28.3395 14.5895C29.2772 13.6518 30.5489 13.125 31.875 13.125C33.2011 13.125 34.4729 13.6518 35.4105 14.5895C36.3482 15.5271 36.875 16.7989 36.875 18.125C36.875 19.4511 36.3482 20.7229 35.4105 21.6605C34.4729 22.5982 33.2011 23.125 31.875 23.125Z" fill="white"/>
</g>
</g>
</svg>
