<svg width="10" height="11" viewBox="0 0 10 11" fill="none" xmlns="http://www.w3.org/2000/svg">
<g id="Frame" clip-path="url(#clip0_92_36102)">
<g id="Group">
<path id="Vector" d="M8.80235 2.19615C8.79431 2.13835 8.76955 2.08417 8.73112 2.04025C8.69269 1.99633 8.64227 1.9646 8.58605 1.94895L4.90417 0.92502C4.85168 0.91041 4.7962 0.91041 4.74371 0.92502L1.06183 1.94895C1.00561 1.96459 0.955176 1.99632 0.916746 2.04024C0.878316 2.08416 0.85356 2.13835 0.845524 2.19615C0.824169 2.34971 0.336991 5.97794 1.58657 7.78287C2.83467 9.58565 4.67589 10.0476 4.75365 10.0664C4.79984 10.0776 4.84804 10.0776 4.89423 10.0664C4.97203 10.0476 6.81325 9.58565 8.06131 7.78287C9.31089 5.97798 8.82371 2.34975 8.80235 2.19615ZM7.19828 4.31435L4.68687 6.82576C4.62843 6.8842 4.55179 6.91346 4.47519 6.91346C4.39859 6.91346 4.32195 6.88424 4.26351 6.82576L2.71073 5.27298C2.68292 5.24519 2.66086 5.21219 2.64581 5.17587C2.63076 5.13955 2.62301 5.10062 2.62301 5.0613C2.62301 5.02199 2.63076 4.98306 2.64581 4.94674C2.66086 4.91042 2.68292 4.87742 2.71073 4.84963L3.01904 4.54131C3.07519 4.48518 3.15133 4.45364 3.23072 4.45364C3.31011 4.45364 3.38625 4.48518 3.4424 4.54131L4.47519 5.57411L6.46661 3.58265C6.4944 3.55484 6.5274 3.53277 6.56372 3.51772C6.60004 3.50267 6.63897 3.49492 6.67829 3.49492C6.7176 3.49492 6.75654 3.50267 6.79286 3.51772C6.82918 3.53277 6.86217 3.55484 6.88997 3.58265L7.19828 3.89096C7.22608 3.91876 7.24813 3.95176 7.26318 3.98808C7.27823 4.02441 7.28597 4.06334 7.28597 4.10265C7.28597 4.14197 7.27823 4.1809 7.26318 4.21722C7.24813 4.25355 7.22608 4.28655 7.19828 4.31435Z" fill="#999999"/>
</g>
</g>
<defs>
<clipPath id="clip0_92_36102">
<rect width="9.16078" height="9.16078" fill="white" transform="translate(0.243164 0.914062)"/>
</clipPath>
</defs>
</svg>
