<svg width="56" height="56" viewBox="0 0 56 56" fill="none" xmlns="http://www.w3.org/2000/svg">
<g id="Frame" clip-path="url(#clip0_92_32881)">
<g id="Group">
<path id="Vector" d="M33.3886 30.3008C33.3886 27.3294 30.9712 24.9121 27.9999 24.9121C25.0288 24.9121 22.6113 27.3294 22.6113 30.3008C22.6113 33.2721 25.0288 35.6894 27.9999 35.6894C30.9712 35.6894 33.3886 33.2721 33.3886 30.3008ZM27.9999 38.9707C25.0288 38.9707 22.6113 41.388 22.6113 44.3593V54.7865H33.3885V44.3593C33.3886 41.3879 30.9712 38.9707 27.9999 38.9707Z" fill="white"/>
<path id="Vector_2" d="M55.8515 21.4485C55.4274 20.1433 54.1643 19.2466 52.3862 18.9884L37.8927 16.8819L31.411 3.74856C30.6155 2.13723 29.3721 1.21289 27.9998 1.21289C26.6275 1.21289 25.3843 2.13723 24.5892 3.74867L18.107 16.8819L3.61396 18.9883C1.8355 19.2466 0.572311 20.1435 0.148368 21.4488C-0.275683 22.7541 0.219135 24.2219 1.50606 25.476L11.9929 35.6988L9.51809 50.1337C9.20516 51.9586 9.73082 53.0593 10.227 53.6614C10.7901 54.345 11.6078 54.7412 12.5363 54.7823C12.5746 54.785 12.6131 54.7864 12.652 54.7864H19.33V44.3592C19.33 41.4688 20.7531 38.9061 22.9339 37.3299C20.7531 35.7538 19.33 33.191 19.33 30.3006C19.33 25.52 23.2193 21.6307 27.9998 21.6307C32.7806 21.6307 36.6699 25.52 36.6699 30.3006C36.6699 33.191 35.2469 35.7537 33.066 37.3299C35.2469 38.906 36.6699 41.4688 36.6699 44.3592V54.7864H43.4048C43.4871 54.7864 43.5679 54.7803 43.6469 54.7685C44.5147 54.6851 45.2749 54.2832 45.8006 53.6267C46.2815 53.0259 46.7901 51.9323 46.4817 50.1337L44.006 35.6988L54.4942 25.4759C55.7809 24.2217 56.2757 22.7537 55.8515 21.4485Z" fill="white"/>
</g>
</g>
<defs>
<clipPath id="clip0_92_32881">
<rect width="56" height="56" fill="white"/>
</clipPath>
</defs>
</svg>
