<svg width="10" height="10" viewBox="0 0 10 10" fill="none" xmlns="http://www.w3.org/2000/svg">
<g id="Frame" clip-path="url(#clip0_92_30388)">
<g id="Group">
<path id="Vector" d="M5.83174 4.99999L9.82751 1.00423C10.0575 0.774235 10.0575 0.402488 9.82751 0.172495C9.59751 -0.0574983 9.22576 -0.0574983 8.99577 0.172495L5.00001 4.16826L1.00423 0.172495C0.774235 -0.0574983 0.402488 -0.0574983 0.172495 0.172495C-0.0574983 0.402488 -0.0574983 0.774235 0.172495 1.00423L4.16826 4.99999L0.172495 8.99575C-0.0574983 9.22575 -0.0574983 9.59749 0.172495 9.82749C0.22705 9.88218 0.291872 9.92556 0.363238 9.95514C0.434605 9.98471 0.51111 9.9999 0.588362 9.99982C0.738943 9.99982 0.889525 9.94217 1.00423 9.82749L4.99999 5.83172L8.99575 9.82749C9.05031 9.88218 9.11513 9.92556 9.1865 9.95514C9.25786 9.98471 9.33437 9.9999 9.41162 9.99982C9.5622 9.99982 9.71278 9.94217 9.82749 9.82749C10.0575 9.59749 10.0575 9.22575 9.82749 8.99575L5.83174 4.99999Z" fill="white"/>
</g>
</g>
<defs>
<clipPath id="clip0_92_30388">
<rect width="10" height="10" fill="white"/>
</clipPath>
</defs>
</svg>
