<svg width="334" height="43" viewBox="0 0 334 43" fill="none" xmlns="http://www.w3.org/2000/svg">
<path d="M1.36461 41.4973L7.00204 36.1273C7.89508 35.2768 9.08132 34.8024 10.3149 34.8024C11.5484 34.8024 12.7347 35.2768 13.6277 36.1273L17.4556 39.7583C18.3487 40.6088 19.5349 41.0833 20.7685 41.0833C22.0021 41.0833 23.1883 40.6088 24.0814 39.7583L27.8953 36.1273C28.7907 35.2759 29.9793 34.8011 31.2151 34.8011C32.451 34.8011 33.6396 35.2759 34.5349 36.1273L38.3489 39.7583C39.2419 40.6088 40.4282 41.0833 41.6618 41.0833C42.8953 41.0833 44.0816 40.6088 44.9746 39.7583L48.7886 36.1273C49.6839 35.2759 50.8725 34.8011 52.1084 34.8011C53.3443 34.8011 54.5328 35.2759 55.4282 36.1273L59.2422 39.7583C60.1352 40.6088 61.3215 41.0833 62.555 41.0833C63.7886 41.0833 64.9748 40.6088 65.8679 39.7583L69.6958 36.1273C70.5888 35.2768 71.7751 34.8024 73.0086 34.8024C74.2422 34.8024 75.4285 35.2768 76.3215 36.1273L80.1354 39.7583C81.0285 40.6088 82.2147 41.0833 83.4483 41.0833C84.6819 41.0833 85.8681 40.6088 86.7612 39.7583L90.589 36.1273C91.4821 35.2768 92.6683 34.8024 93.9019 34.8024C95.1355 34.8024 96.3217 35.2768 97.2148 36.1273L101.029 39.7583C101.924 40.6097 103.113 41.0846 104.349 41.0846C105.584 41.0846 106.773 40.6097 107.668 39.7583L111.482 36.1273C112.375 35.2768 113.562 34.8024 114.795 34.8024C116.029 34.8024 117.215 35.2768 118.108 36.1273L121.936 39.7583C122.829 40.6088 124.015 41.0833 125.249 41.0833C126.482 41.0833 127.669 40.6088 128.562 39.7583L132.376 36.1273C133.269 35.2768 134.455 34.8024 135.688 34.8024C136.922 34.8024 138.108 35.2768 139.001 36.1273L142.829 39.7583C143.722 40.6088 144.908 41.0833 146.142 41.0833C147.376 41.0833 148.562 40.6088 149.455 39.7583L153.269 36.1273C154.164 35.2759 155.353 34.8011 156.589 34.8011C157.825 34.8011 159.013 35.2759 159.908 36.1273L163.722 39.7583C164.615 40.6088 165.802 41.0833 167.035 41.0833C168.269 41.0833 169.455 40.6088 170.348 39.7583L174.162 36.1273C175.057 35.2759 176.246 34.8011 177.482 34.8011C178.718 34.8011 179.906 35.2759 180.802 36.1273L184.616 39.7583C185.509 40.6088 186.695 41.0833 187.929 41.0833C189.162 41.0833 190.348 40.6088 191.241 39.7583L195.069 36.1273C195.962 35.2768 197.149 34.8024 198.382 34.8024C199.616 34.8024 200.802 35.2768 201.695 36.1273L205.509 39.7583C206.402 40.6088 207.588 41.0833 208.822 41.0833C210.055 41.0833 211.242 40.6088 212.135 39.7583L215.963 36.1273C216.856 35.2768 218.042 34.8024 219.275 34.8024C220.509 34.8024 221.695 35.2768 222.588 36.1273L226.402 39.7583C227.298 40.6097 228.486 41.0846 229.722 41.0846C230.958 41.0846 232.147 40.6097 233.042 39.7583L236.856 36.1273C237.749 35.2768 238.935 34.8024 240.169 34.8024C241.402 34.8024 242.589 35.2768 243.482 36.1273L247.309 39.7583C248.202 40.6088 249.389 41.0833 250.622 41.0833C251.856 41.0833 253.042 40.6088 253.935 39.7583L257.749 36.1273C258.642 35.2768 259.828 34.8024 261.062 34.8024C262.296 34.8024 263.482 35.2768 264.375 36.1273L268.203 39.7583C269.096 40.6088 270.282 41.0833 271.516 41.0833C272.749 41.0833 273.935 40.6088 274.828 39.7583L278.642 36.1273C279.538 35.2759 280.726 34.8011 281.962 34.8011C283.198 34.8011 284.387 35.2759 285.282 36.1273L289.096 39.7583C289.989 40.6088 291.175 41.0833 292.409 41.0833C293.642 41.0833 294.829 40.6088 295.722 39.7583L299.536 36.1273C300.431 35.2759 301.62 34.8011 302.855 34.8011C304.091 34.8011 305.28 35.2759 306.175 36.1273L309.989 39.7583C310.882 40.6088 312.069 41.0833 313.302 41.0833C314.536 41.0833 315.722 40.6088 316.615 39.7583L320.443 36.1273C321.336 35.2768 322.522 34.8024 323.756 34.8024C324.989 34.8024 326.176 35.2768 327.069 36.1273L332.636 41.4973C333.085 41.9232 333.445 42.4339 333.694 42.9997H333.973V-455.042H-0.0273438V42.9997H0.251043C0.517198 42.4291 0.895967 41.918 1.36461 41.4973Z" fill="#FFFDFC"/>
</svg>
