<svg width="36" height="36" viewBox="0 0 36 36" fill="none" xmlns="http://www.w3.org/2000/svg">
<g id="Frame">
<g id="Group">
<g id="Layer 2">
<path id="Vector" d="M31.7806 15.0105C30.8466 14.4675 30.4502 13.3043 30.8673 12.3077C30.878 12.282 30.8889 12.2565 30.9001 12.231C31.3366 10.9995 31.8301 9.6045 31.0381 8.52C30.2461 7.4355 28.7506 7.47 27.4381 7.5C27.4317 7.50066 27.4253 7.5013 27.419 7.50193C26.3191 7.61093 25.2981 6.86954 25.0681 5.7885C24.6961 4.521 24.2716 3.0885 22.9681 2.6595C21.7111 2.2545 20.5471 3.1455 19.5181 3.9285C18.6639 4.70858 17.3225 4.70568 16.4656 3.9285C15.4396 3.15 14.2801 2.25 13.0171 2.661C11.7166 3.084 11.2921 4.521 10.9171 5.7885C10.6876 6.86536 9.67379 7.60489 8.5775 7.50263C8.56837 7.50177 8.55924 7.5009 8.55011 7.5C7.23311 7.464 5.74961 7.425 4.95011 8.52C4.15061 9.615 4.65011 10.9995 5.08811 12.2295C5.09966 12.2555 5.11099 12.2815 5.12209 12.3077C5.54427 13.3021 5.1486 14.4667 4.21511 15.0105C3.11711 15.7605 1.87061 16.614 1.87061 18C1.87061 19.386 3.11711 20.2365 4.21511 20.9895C5.14898 21.5328 5.54879 22.6951 5.13339 23.6925C5.12252 23.7186 5.11143 23.7446 5.10011 23.7705C4.66511 25.0005 4.17311 26.3955 4.96361 27.48C5.75411 28.5645 7.24511 28.53 8.56361 28.5C8.57072 28.4993 8.57784 28.4986 8.58496 28.4978C9.6841 28.3894 10.7029 29.1314 10.9336 30.2115C11.3056 31.479 11.7301 32.9115 13.0336 33.3405C13.4502 33.4741 13.9013 33.4249 14.3227 33.3074C15.1306 33.082 15.8736 32.6587 16.4821 32.0715C17.3363 31.2914 18.6777 31.2943 19.5346 32.0715C20.5621 32.856 21.7261 33.7515 22.9846 33.339C24.2851 32.916 24.7096 31.479 25.0846 30.213C25.315 29.1334 26.333 28.3916 27.4317 28.4982C27.4378 28.4988 27.444 28.4994 27.4501 28.5C28.7671 28.5315 30.2506 28.575 31.0501 27.48C31.8496 26.385 31.3501 25.0005 30.9121 23.769C30.9012 23.7443 30.8905 23.7196 30.88 23.6948C30.4588 22.6995 30.852 21.5338 31.7866 20.991C32.8846 20.241 34.1311 19.386 34.1311 18C34.1311 16.614 32.8801 15.762 31.7806 15.0105Z" fill="url(#paint0_linear_29_3735)"/>
<path id="Vector_2" d="M16.5 22.125C16.3523 22.1253 16.2059 22.0963 16.0695 22.0396C15.933 21.983 15.8091 21.8998 15.705 21.795L12.705 18.795C12.5063 18.5817 12.3981 18.2997 12.4033 18.0082C12.4084 17.7168 12.5265 17.4387 12.7326 17.2326C12.9387 17.0264 13.2168 16.9084 13.5082 16.9032C13.7997 16.8981 14.0818 17.0063 14.295 17.205L16.605 19.515L21.825 15.6C22.0637 15.421 22.3637 15.3441 22.6591 15.3863C22.9545 15.4285 23.221 15.5863 23.4 15.825C23.579 16.0637 23.6559 16.3637 23.6137 16.6591C23.5715 16.9545 23.4137 17.221 23.175 17.4L17.175 21.9C16.9802 22.046 16.7434 22.1249 16.5 22.125Z" fill="white"/>
</g>
</g>
</g>
<defs>
<linearGradient id="paint0_linear_29_3735" x1="-1.80991" y1="-9.00649" x2="24.775" y2="-4.34046" gradientUnits="userSpaceOnUse">
<stop stop-color="#FDC15D"/>
<stop offset="0.552083" stop-color="#D1297A"/>
<stop offset="1" stop-color="#AB2DA7"/>
</linearGradient>
</defs>
</svg>
